<svg width="20" height="21" viewBox="0 0 20 21" fill="none" xmlns="http://www.w3.org/2000/svg">
<g clip-path="url(#clip0_1055_2349)">
<rect width="20" height="20" transform="translate(0 0.399902)" fill="white" fill-opacity="0.01"/>
<g clip-path="url(#clip1_1055_2349)">
<path fill-rule="evenodd" clip-rule="evenodd" d="M12.9166 7.06657C12.6866 7.06657 12.4999 6.8799 12.4999 6.6499L7.18749 3.08657C7.15211 3.05839 7.11422 3.03291 7.07409 3.0105L4.42443 1.23324H1.66659C1.43659 1.23324 1.24992 1.04657 1.24992 0.816569C1.24992 0.586569 1.43659 0.399902 1.66659 0.399902H11.2499C12.3991 0.399902 13.3333 1.3349 13.3333 2.48324V6.6499C13.3333 6.8799 13.1466 7.06657 12.9166 7.06657ZM7.07409 3.0105C7.02778 2.98465 6.97848 2.96287 6.92659 2.94574L1.92659 1.27908C1.84075 1.24824 1.75325 1.23324 1.66659 1.23324C1.20659 1.23324 0.833252 1.60741 0.833252 2.06658V17.0666C0.833252 17.4232 1.06325 17.7399 1.40659 17.8549L6.40659 19.5216C6.95325 19.7157 7.49992 19.2782 7.49992 18.7332V17.4839L7.49992 17.4832L7.49992 17.4826V3.73324C7.49992 3.4766 7.38139 3.24101 7.18749 3.08657L7.07409 3.0105ZM18.5774 9.56658H11.2499C11.0199 9.56658 10.8333 9.37991 10.8333 9.14991C10.8333 8.91991 11.0199 8.73324 11.2499 8.73324H18.5758L15.9549 6.11241C15.7924 5.94991 15.7924 5.68574 15.9549 5.52324C16.1174 5.36074 16.3816 5.36074 16.5441 5.52324L19.8548 8.83395C19.9436 8.91039 19.9999 9.02362 19.9999 9.14991C19.9999 9.20757 19.9882 9.26251 19.967 9.31246C19.9467 9.36094 19.9168 9.40633 19.8774 9.44574L16.5441 12.7791C16.4633 12.8591 16.3566 12.8999 16.2499 12.8999C16.1433 12.8999 16.0366 12.8591 15.9549 12.7782C15.7924 12.6157 15.7924 12.3516 15.9549 12.1891L18.5774 9.56658Z" fill="#1890FF"/>
</g>
</g>
<defs>
<clipPath id="clip0_1055_2349">
<rect width="20" height="20" fill="white" transform="translate(0 0.399902)"/>
</clipPath>
<clipPath id="clip1_1055_2349">
<rect width="20" height="20" fill="white" transform="translate(0 0.399902)"/>
</clipPath>
</defs>
</svg>
